<mxfile host="app.diagrams.net" modified="2022-04-19T02:17:04.586Z" agent="5.0 (Windows NT 10.0; WOW64) AppleWebKit/537.36 (KHTML, like Gecko) Chrome/86.0.4240.198 Safari/537.36" etag="StTnIDBLTb9hxySvqyix" version="16.6.1" type="github">
  <diagram id="JYGWlqTetd3V91hgGFpW" name="Page-1">
    <mxGraphModel dx="631" dy="745" grid="1" gridSize="10" guides="1" tooltips="1" connect="1" arrows="1" fold="1" page="1" pageScale="1" pageWidth="827" pageHeight="1169" math="0" shadow="0">
      <root>
        <mxCell id="0" />
        <mxCell id="1" parent="0" />
        <mxCell id="jwWp1j_d-DZrZMPaIDys-17" style="edgeStyle=orthogonalEdgeStyle;rounded=0;orthogonalLoop=1;jettySize=auto;html=1;exitX=0;exitY=0.5;exitDx=0;exitDy=0;entryX=1;entryY=0.5;entryDx=0;entryDy=0;" edge="1" parent="1" source="jwWp1j_d-DZrZMPaIDys-1" target="jwWp1j_d-DZrZMPaIDys-2">
          <mxGeometry relative="1" as="geometry" />
        </mxCell>
        <mxCell id="jwWp1j_d-DZrZMPaIDys-1" value="用户" style="rounded=0;whiteSpace=wrap;html=1;" vertex="1" parent="1">
          <mxGeometry x="360" y="40" width="80" height="40" as="geometry" />
        </mxCell>
        <mxCell id="jwWp1j_d-DZrZMPaIDys-2" value="用户账号" style="ellipse;whiteSpace=wrap;html=1;" vertex="1" parent="1">
          <mxGeometry x="220" y="40" width="60" height="40" as="geometry" />
        </mxCell>
        <mxCell id="jwWp1j_d-DZrZMPaIDys-4" value="密码" style="ellipse;whiteSpace=wrap;html=1;" vertex="1" parent="1">
          <mxGeometry x="220" y="90" width="60" height="40" as="geometry" />
        </mxCell>
        <mxCell id="jwWp1j_d-DZrZMPaIDys-5" value="联系方式" style="ellipse;whiteSpace=wrap;html=1;" vertex="1" parent="1">
          <mxGeometry x="520" y="140" width="60" height="40" as="geometry" />
        </mxCell>
        <mxCell id="jwWp1j_d-DZrZMPaIDys-6" value="性别" style="ellipse;whiteSpace=wrap;html=1;" vertex="1" parent="1">
          <mxGeometry x="220" y="190" width="60" height="40" as="geometry" />
        </mxCell>
        <mxCell id="jwWp1j_d-DZrZMPaIDys-7" value="余额" style="ellipse;whiteSpace=wrap;html=1;" vertex="1" parent="1">
          <mxGeometry x="520" y="90" width="60" height="40" as="geometry" />
        </mxCell>
        <mxCell id="jwWp1j_d-DZrZMPaIDys-8" value="用户姓名" style="ellipse;whiteSpace=wrap;html=1;" vertex="1" parent="1">
          <mxGeometry x="220" y="140" width="60" height="40" as="geometry" />
        </mxCell>
        <mxCell id="jwWp1j_d-DZrZMPaIDys-9" value="性别" style="ellipse;whiteSpace=wrap;html=1;" vertex="1" parent="1">
          <mxGeometry x="520" y="190" width="60" height="40" as="geometry" />
        </mxCell>
        <mxCell id="jwWp1j_d-DZrZMPaIDys-10" value="是否会员" style="ellipse;whiteSpace=wrap;html=1;" vertex="1" parent="1">
          <mxGeometry x="520" y="40" width="60" height="40" as="geometry" />
        </mxCell>
        <mxCell id="jwWp1j_d-DZrZMPaIDys-11" value="头像" style="ellipse;whiteSpace=wrap;html=1;" vertex="1" parent="1">
          <mxGeometry x="370" y="190" width="60" height="40" as="geometry" />
        </mxCell>
        <mxCell id="jwWp1j_d-DZrZMPaIDys-25" value="" style="endArrow=classic;html=1;rounded=0;exitX=1;exitY=0.5;exitDx=0;exitDy=0;entryX=0;entryY=0.5;entryDx=0;entryDy=0;" edge="1" parent="1" source="jwWp1j_d-DZrZMPaIDys-1" target="jwWp1j_d-DZrZMPaIDys-10">
          <mxGeometry width="50" height="50" relative="1" as="geometry">
            <mxPoint x="360" y="410" as="sourcePoint" />
            <mxPoint x="410" y="360" as="targetPoint" />
          </mxGeometry>
        </mxCell>
        <mxCell id="jwWp1j_d-DZrZMPaIDys-26" value="" style="endArrow=classic;html=1;rounded=0;exitX=0.5;exitY=1;exitDx=0;exitDy=0;entryX=1;entryY=0.5;entryDx=0;entryDy=0;" edge="1" parent="1" source="jwWp1j_d-DZrZMPaIDys-1" target="jwWp1j_d-DZrZMPaIDys-4">
          <mxGeometry width="50" height="50" relative="1" as="geometry">
            <mxPoint x="360" y="410" as="sourcePoint" />
            <mxPoint x="410" y="360" as="targetPoint" />
          </mxGeometry>
        </mxCell>
        <mxCell id="jwWp1j_d-DZrZMPaIDys-27" value="" style="endArrow=classic;html=1;rounded=0;entryX=1;entryY=0.5;entryDx=0;entryDy=0;" edge="1" parent="1" target="jwWp1j_d-DZrZMPaIDys-8">
          <mxGeometry width="50" height="50" relative="1" as="geometry">
            <mxPoint x="400" y="80" as="sourcePoint" />
            <mxPoint x="410" y="360" as="targetPoint" />
          </mxGeometry>
        </mxCell>
        <mxCell id="jwWp1j_d-DZrZMPaIDys-28" value="" style="endArrow=classic;html=1;rounded=0;entryX=1;entryY=0.5;entryDx=0;entryDy=0;" edge="1" parent="1" target="jwWp1j_d-DZrZMPaIDys-6">
          <mxGeometry width="50" height="50" relative="1" as="geometry">
            <mxPoint x="400" y="80" as="sourcePoint" />
            <mxPoint x="410" y="360" as="targetPoint" />
          </mxGeometry>
        </mxCell>
        <mxCell id="jwWp1j_d-DZrZMPaIDys-29" value="" style="endArrow=classic;html=1;rounded=0;entryX=0.5;entryY=0;entryDx=0;entryDy=0;" edge="1" parent="1" target="jwWp1j_d-DZrZMPaIDys-11">
          <mxGeometry width="50" height="50" relative="1" as="geometry">
            <mxPoint x="400" y="80" as="sourcePoint" />
            <mxPoint x="410" y="360" as="targetPoint" />
          </mxGeometry>
        </mxCell>
        <mxCell id="jwWp1j_d-DZrZMPaIDys-30" value="" style="endArrow=classic;html=1;rounded=0;entryX=0;entryY=0.5;entryDx=0;entryDy=0;" edge="1" parent="1" target="jwWp1j_d-DZrZMPaIDys-7">
          <mxGeometry width="50" height="50" relative="1" as="geometry">
            <mxPoint x="400" y="80" as="sourcePoint" />
            <mxPoint x="410" y="360" as="targetPoint" />
          </mxGeometry>
        </mxCell>
        <mxCell id="jwWp1j_d-DZrZMPaIDys-31" value="" style="endArrow=classic;html=1;rounded=0;entryX=0;entryY=0.5;entryDx=0;entryDy=0;" edge="1" parent="1" target="jwWp1j_d-DZrZMPaIDys-5">
          <mxGeometry width="50" height="50" relative="1" as="geometry">
            <mxPoint x="400" y="80" as="sourcePoint" />
            <mxPoint x="410" y="360" as="targetPoint" />
          </mxGeometry>
        </mxCell>
        <mxCell id="jwWp1j_d-DZrZMPaIDys-32" value="" style="endArrow=classic;html=1;rounded=0;entryX=0;entryY=0.5;entryDx=0;entryDy=0;" edge="1" parent="1" target="jwWp1j_d-DZrZMPaIDys-9">
          <mxGeometry width="50" height="50" relative="1" as="geometry">
            <mxPoint x="400" y="80" as="sourcePoint" />
            <mxPoint x="410" y="360" as="targetPoint" />
          </mxGeometry>
        </mxCell>
      </root>
    </mxGraphModel>
  </diagram>
</mxfile>
